<svg width="50" height="38" viewBox="0 0 50 38" fill="none" xmlns="http://www.w3.org/2000/svg">
<path d="M0.15625 4.92417C0.471307 3.52527 1.2458 2.27624 2.35288 1.38164C3.45996 0.487045 4.83401 -9.65657e-05 6.25 1.43581e-08H43.75C45.166 -9.65657e-05 46.54 0.487045 47.6471 1.38164C48.7542 2.27624 49.5287 3.52527 49.8437 4.92417L25 20.311L0.15625 4.92417ZM0 8.5405V31.0365L18.1344 19.7695L0 8.5405ZM21.1281 21.6283L0.596875 34.3805C1.10415 35.4644 1.90477 36.38 2.90557 37.0208C3.90636 37.6616 5.06617 38.0011 6.25 38H43.75C44.9336 38.0003 46.093 37.6599 47.0932 37.0186C48.0935 36.3773 48.8934 35.4613 49.4 34.3773L28.8687 21.6252L25 24.0223L21.1281 21.6283ZM31.8656 19.7727L50 31.0365V8.5405L31.8656 19.7727Z" fill="#FEECE8"/>
</svg>
