<svg width="50" height="41" viewBox="0 0 50 41" fill="none" xmlns="http://www.w3.org/2000/svg">
<path d="M15.7063 41C34.575 41 44.8969 25.2221 44.8969 11.5636C44.901 11.12 44.8948 10.6763 44.8781 10.2327C46.887 8.76387 48.6213 6.94643 50 4.86516C48.1222 5.69859 46.1333 6.249 44.0969 6.49876C46.2425 5.20483 47.8494 3.16852 48.6187 0.76853C46.604 1.97551 44.3975 2.82161 42.0969 3.2694C40.5506 1.60748 38.5044 0.506515 36.2753 0.137029C34.0461 -0.232456 31.7585 0.150161 29.7667 1.22562C27.7749 2.30107 26.19 4.00934 25.2577 6.08582C24.3253 8.1623 24.0974 10.4911 24.6094 12.7115C20.5302 12.5061 16.5395 11.4371 12.8963 9.57412C9.25316 7.71109 6.03898 5.09563 3.4625 1.89755C2.15494 4.1781 1.75609 6.87526 2.3469 9.44172C2.9377 12.0082 4.47389 14.2517 6.64375 15.717C5.0169 15.6639 3.4256 15.223 2 14.4303V14.5722C2.00398 16.9607 2.82444 19.2747 4.32289 21.1236C5.82133 22.9725 7.906 24.243 10.225 24.7207C9.34459 24.9656 8.4351 25.0876 7.52188 25.0834C6.87787 25.0901 6.23489 25.0299 5.60313 24.9036C6.25748 26.9608 7.53368 28.7595 9.25261 30.0474C10.9715 31.3353 13.0469 32.0476 15.1875 32.0845C11.5503 34.9638 7.06014 36.5264 2.4375 36.5218C1.62281 36.528 0.808582 36.4806 0 36.3799C4.69194 39.3994 10.1415 41.0024 15.7063 41Z" fill="#E0D7D7"/>
</svg>
