<svg width="70" height="70" viewBox="0 0 70 70" fill="none" xmlns="http://www.w3.org/2000/svg">
<g clip-path="url(#clip0_988_880)">
<rect x="10.5" y="9" width="49" height="52" rx="10" fill="#FEECE8"/>
<path fill-rule="evenodd" clip-rule="evenodd" d="M35.133 6.3476C40.5301 6.34757 44.7606 6.34755 48.117 6.7112C51.5422 7.08229 54.3175 7.85317 56.687 9.57474C58.1215 10.617 59.3831 11.8785 60.4253 13.313C62.1469 15.6826 62.9178 18.4578 63.2888 21.883C63.6525 25.2393 63.6525 29.4698 63.6524 34.8667V35.133C63.6525 40.5299 63.6525 44.7606 63.2888 48.117C62.9178 51.5422 62.1469 54.3174 60.4253 56.687C59.4333 58.0523 58.2427 59.2609 56.8934 60.2729C56.8645 60.2946 56.8355 60.3162 56.8064 60.3377C56.7753 60.3607 56.7442 60.3836 56.713 60.4064L56.687 60.4252C54.3175 62.1468 51.5422 62.9177 48.117 63.2888C44.7607 63.6524 40.5302 63.6524 35.1333 63.6524H34.867C29.4701 63.6524 25.2394 63.6524 21.8831 63.2888C18.4579 62.9177 15.6826 62.1468 13.3131 60.4252C13.2478 60.3778 13.1829 60.3299 13.1183 60.2816C11.7642 59.2678 10.5696 58.0562 9.5748 56.687C7.85323 54.3174 7.08235 51.5422 6.71126 48.117C6.34761 44.7606 6.34763 40.53 6.34766 35.133V34.867C6.34763 29.47 6.34761 25.2394 6.71126 21.883C7.08235 18.4578 7.85323 15.6826 9.5748 13.313C10.617 11.8785 11.8786 10.617 13.3131 9.57474C15.6826 7.85317 18.4579 7.08229 21.8831 6.7112C25.2395 6.34755 29.47 6.34757 34.8671 6.3476H35.133ZM55.2769 55.8851C54.0845 50.6565 49.406 46.7548 43.8162 46.7548H26.1839C20.5941 46.7548 15.9156 50.6566 14.7232 55.8851C15.0525 56.1925 15.3986 56.4822 15.7601 56.7529C15.8079 56.7886 15.8559 56.824 15.9041 56.859C17.397 57.9437 19.3077 58.5759 22.3579 58.9064C25.4492 59.2413 29.4413 59.2443 35.0001 59.2443C40.5588 59.2443 44.5509 59.2413 47.6422 58.9064C50.6924 58.5759 52.6031 57.9437 54.096 56.859C54.1472 56.8219 54.198 56.7844 54.2486 56.7464C54.607 56.4776 54.9502 56.1901 55.2769 55.8851ZM35.0001 12.225C27.2908 12.225 21.0412 18.4746 21.0412 26.1839C21.0412 33.8931 27.2908 40.1427 35.0001 40.1427C42.7093 40.1427 48.9589 33.8931 48.9589 26.1839C48.9589 18.4746 42.7093 12.225 35.0001 12.225Z" fill="#C06850"/>
</g>
<defs>
<clipPath id="clip0_988_880">
<rect width="70" height="70" fill="white"/>
</clipPath>
</defs>
</svg>
