<svg width="250" height="40" viewBox="0 0 250 40" fill="none" xmlns="http://www.w3.org/2000/svg">
<g clip-path="url(#clip0_1033_372)">
<g clip-path="url(#clip1_1033_372)">
<path d="M39.7072 14.3809L27.7159 12.6472L22.3555 1.83632C22.2091 1.54033 21.9683 1.30071 21.6707 1.15506C20.9245 0.788592 20.0177 1.09398 19.6446 1.83632L14.2843 12.6472L2.29303 14.3809C1.96244 14.4279 1.66018 14.5829 1.42876 14.8178C1.14899 15.1039 0.99482 15.4888 1.00013 15.8878C1.00545 16.2869 1.16981 16.6676 1.45709 16.9462L10.1329 25.3609L8.0832 37.243C8.03514 37.5194 8.06588 37.8037 8.17195 38.0636C8.27802 38.3235 8.45518 38.5486 8.68332 38.7135C8.91147 38.8783 9.18148 38.9762 9.46273 38.9962C9.74399 39.0161 10.0252 38.9573 10.2746 38.8263L21.0001 33.2165L31.7256 38.8263C32.0184 38.9814 32.3585 39.0331 32.6843 38.9767C33.5061 38.8357 34.0587 38.0605 33.917 37.243L31.8673 25.3609L40.5431 16.9462C40.7792 16.716 40.9351 16.4153 40.9823 16.0864C41.1098 15.2642 40.5336 14.503 39.7072 14.3809ZM28.2166 24.1769L29.9215 34.0575L21.0001 29.3968L12.0787 34.0622L13.7836 24.1816L6.56718 17.1811L16.5418 15.7387L21.0001 6.75078L25.4584 15.7387L35.433 17.1811L28.2166 24.1769Z" fill="#FEB579"/>
<path d="M91.7072 14.3809L79.7159 12.6472L74.3555 1.83632C74.2091 1.54033 73.9683 1.30071 73.6707 1.15506C72.9245 0.788592 72.0177 1.09398 71.6446 1.83632L66.2843 12.6472L54.293 14.3809C53.9624 14.4279 53.6602 14.5829 53.4288 14.8178C53.149 15.1039 52.9948 15.4888 53.0001 15.8878C53.0054 16.2869 53.1698 16.6676 53.4571 16.9462L62.1329 25.3609L60.0832 37.243C60.0351 37.5194 60.0659 37.8037 60.172 38.0636C60.278 38.3235 60.4552 38.5486 60.6833 38.7135C60.9115 38.8783 61.1815 38.9762 61.4627 38.9962C61.744 39.0161 62.0252 38.9573 62.2746 38.8263L73.0001 33.2165L83.7256 38.8263C84.0184 38.9814 84.3585 39.0331 84.6843 38.9767C85.5061 38.8357 86.0587 38.0605 85.917 37.243L83.8673 25.3609L92.5431 16.9462C92.7792 16.716 92.9351 16.4153 92.9823 16.0864C93.1098 15.2642 92.5336 14.503 91.7072 14.3809ZM80.2166 24.1769L81.9215 34.0575L73.0001 29.3968L64.0787 34.0622L65.7836 24.1816L58.5672 17.1811L68.5418 15.7387L73.0001 6.75078L77.4584 15.7387L87.433 17.1811L80.2166 24.1769Z" fill="#FEB579"/>
<path d="M143.707 14.3809L131.716 12.6472L126.356 1.83632C126.209 1.54033 125.968 1.30071 125.671 1.15506C124.925 0.788592 124.018 1.09398 123.645 1.83632L118.284 12.6472L106.293 14.3809C105.962 14.4279 105.66 14.5829 105.429 14.8178C105.149 15.1039 104.995 15.4888 105 15.8878C105.005 16.2869 105.17 16.6676 105.457 16.9462L114.133 25.3609L112.083 37.243C112.035 37.5194 112.066 37.8037 112.172 38.0636C112.278 38.3235 112.455 38.5486 112.683 38.7135C112.911 38.8783 113.181 38.9762 113.463 38.9962C113.744 39.0161 114.025 38.9573 114.275 38.8263L125 33.2165L135.726 38.8263C136.018 38.9814 136.358 39.0331 136.684 38.9767C137.506 38.8357 138.059 38.0605 137.917 37.243L135.867 25.3609L144.543 16.9462C144.779 16.716 144.935 16.4153 144.982 16.0864C145.11 15.2642 144.534 14.503 143.707 14.3809ZM132.217 24.1769L133.921 34.0575L125 29.3968L116.079 34.0622L117.784 24.1816L110.567 17.1811L120.542 15.7387L125 6.75078L129.458 15.7387L139.433 17.1811L132.217 24.1769Z" fill="#FEB579"/>
<path d="M195.707 14.3809L183.716 12.6472L178.356 1.83632C178.209 1.54033 177.968 1.30071 177.671 1.15506C176.925 0.788592 176.018 1.09398 175.645 1.83632L170.284 12.6472L158.293 14.3809C157.962 14.4279 157.66 14.5829 157.429 14.8178C157.149 15.1039 156.995 15.4888 157 15.8878C157.005 16.2869 157.17 16.6676 157.457 16.9462L166.133 25.3609L164.083 37.243C164.035 37.5194 164.066 37.8037 164.172 38.0636C164.278 38.3235 164.455 38.5486 164.683 38.7135C164.911 38.8783 165.181 38.9762 165.463 38.9962C165.744 39.0161 166.025 38.9573 166.275 38.8263L177 33.2165L187.726 38.8263C188.018 38.9814 188.358 39.0331 188.684 38.9767C189.506 38.8357 190.059 38.0605 189.917 37.243L187.867 25.3609L196.543 16.9462C196.779 16.716 196.935 16.4153 196.982 16.0864C197.11 15.2642 196.534 14.503 195.707 14.3809ZM184.217 24.1769L185.921 34.0575L177 29.3968L168.079 34.0622L169.784 24.1816L162.567 17.1811L172.542 15.7387L177 6.75078L181.458 15.7387L191.433 17.1811L184.217 24.1769Z" fill="#FEB579"/>
<path d="M247.707 14.3809L235.716 12.6472L230.356 1.83632C230.209 1.54033 229.968 1.30071 229.671 1.15506C228.925 0.788592 228.018 1.09398 227.645 1.83632L222.284 12.6472L210.293 14.3809C209.962 14.4279 209.66 14.5829 209.429 14.8178C209.149 15.1039 208.995 15.4888 209 15.8878C209.005 16.2869 209.17 16.6676 209.457 16.9462L218.133 25.3609L216.083 37.243C216.035 37.5194 216.066 37.8037 216.172 38.0636C216.278 38.3235 216.455 38.5486 216.683 38.7135C216.911 38.8783 217.181 38.9762 217.463 38.9962C217.744 39.0161 218.025 38.9573 218.275 38.8263L229 33.2165L239.726 38.8263C240.018 38.9814 240.358 39.0331 240.684 38.9767C241.506 38.8357 242.059 38.0605 241.917 37.243L239.867 25.3609L248.543 16.9462C248.779 16.716 248.935 16.4153 248.982 16.0864C249.11 15.2642 248.534 14.503 247.707 14.3809ZM236.217 24.1769L237.921 34.0575L229 29.3968L220.079 34.0622L221.784 24.1816L214.567 17.1811L224.542 15.7387L229 6.75078L233.458 15.7387L243.433 17.1811L236.217 24.1769Z" fill="#FEB579"/>
</g>
</g>
<defs>
<clipPath id="clip0_1033_372">
<rect width="250" height="40" fill="white"/>
</clipPath>
<clipPath id="clip1_1033_372">
<rect width="250" height="40" fill="white"/>
</clipPath>
</defs>
</svg>
