<svg width="76" height="76" viewBox="0 0 76 76" fill="none" xmlns="http://www.w3.org/2000/svg">
<g clip-path="url(#clip0_1033_270)">
<rect width="76" height="76" rx="16" fill="#5B162D"/>
<path d="M70 38.5C70 45.5282 66.6286 52.2686 60.6274 57.2383C54.6263 62.208 46.4869 65 38 65C29.5131 65 21.3737 62.208 15.3726 57.2383C9.37142 52.2686 6 45.5282 6 38.5C6 31.4718 9.37142 24.7314 15.3726 19.7617C21.3737 14.792 29.5131 12 38 12C46.4869 12 54.6263 14.792 60.6274 19.7617C66.6286 24.7314 70 31.4718 70 38.5ZM46 38.5C46 36.7429 45.1571 35.0578 43.6569 33.8154C42.1566 32.573 40.1217 31.875 38 31.875C35.8783 31.875 33.8434 32.573 32.3431 33.8154C30.8429 35.0578 30 36.7429 30 38.5C30 40.2571 30.8429 41.9422 32.3431 43.1846C33.8434 44.427 35.8783 45.125 38 45.125C40.1217 45.125 42.1566 44.427 43.6569 43.1846C45.1571 41.9422 46 40.2571 46 38.5ZM22 38.5C22 34.9859 23.6857 31.6157 26.6863 29.1308C29.6869 26.646 33.7565 25.25 38 25.25C38.5304 25.25 39.0391 25.0755 39.4142 24.7649C39.7893 24.4543 40 24.033 40 23.5938C40 23.1545 39.7893 22.7332 39.4142 22.4226C39.0391 22.112 38.5304 21.9375 38 21.9375C32.6957 21.9375 27.6086 23.6825 23.8579 26.7885C20.1071 29.8946 18 34.1074 18 38.5C18 38.9393 18.2107 39.3605 18.5858 39.6711C18.9609 39.9818 19.4696 40.1562 20 40.1562C20.5304 40.1562 21.0391 39.9818 21.4142 39.6711C21.7893 39.3605 22 38.9393 22 38.5ZM58 38.5C58 38.0607 57.7893 37.6395 57.4142 37.3289C57.0391 37.0182 56.5304 36.8438 56 36.8438C55.4696 36.8438 54.9609 37.0182 54.5858 37.3289C54.2107 37.6395 54 38.0607 54 38.5C54 42.0141 52.3143 45.3843 49.3137 47.8692C46.3131 50.354 42.2435 51.75 38 51.75C37.4696 51.75 36.9609 51.9245 36.5858 52.2351C36.2107 52.5457 36 52.967 36 53.4062C36 53.8455 36.2107 54.2668 36.5858 54.5774C36.9609 54.888 37.4696 55.0625 38 55.0625C43.3043 55.0625 48.3914 53.3175 52.1421 50.2115C55.8929 47.1054 58 42.8926 58 38.5Z" fill="black"/>
</g>
<rect x="1" y="1" width="74" height="74" rx="15" stroke="black" stroke-width="2"/>
<defs>
<clipPath id="clip0_1033_270">
<rect width="76" height="76" rx="16" fill="white"/>
</clipPath>
</defs>
</svg>
