<svg width="42" height="40" viewBox="0 0 42 40" fill="none" xmlns="http://www.w3.org/2000/svg">
<path d="M39.7072 14.3809L27.7159 12.6472L22.3555 1.83632C22.2091 1.54033 21.9683 1.30071 21.6707 1.15506C20.9245 0.788592 20.0177 1.09398 19.6446 1.83632L14.2843 12.6472L2.29303 14.3809C1.96244 14.4279 1.66018 14.5829 1.42876 14.8178C1.14899 15.1039 0.99482 15.4888 1.00013 15.8878C1.00545 16.2869 1.16981 16.6676 1.45709 16.9462L10.1329 25.3609L8.0832 37.243C8.03514 37.5194 8.06588 37.8037 8.17195 38.0636C8.27802 38.3235 8.45518 38.5486 8.68332 38.7135C8.91147 38.8783 9.18148 38.9762 9.46273 38.9962C9.74399 39.0161 10.0252 38.9573 10.2746 38.8263L21.0001 33.2165L31.7256 38.8263C32.0184 38.9814 32.3585 39.0331 32.6843 38.9767C33.5061 38.8357 34.0587 38.0605 33.917 37.243L31.8673 25.3609L40.5431 16.9462C40.7792 16.716 40.9351 16.4153 40.9823 16.0864C41.1098 15.2642 40.5336 14.503 39.7072 14.3809ZM28.2166 24.1769L29.9215 34.0575L21.0001 29.3968L12.0787 34.0622L13.7836 24.1816L6.56718 17.1811L16.5418 15.7387L21.0001 6.75078L25.4584 15.7387L35.433 17.1811L28.2166 24.1769Z" fill="#FEB579"/>
</svg>
