<svg width="40" height="38" viewBox="0 0 40 38" fill="none" xmlns="http://www.w3.org/2000/svg">
<path d="M38.7072 13.3809L26.7159 11.6472L21.3555 0.836321C21.2091 0.540326 20.9683 0.300711 20.6707 0.155063C19.9245 -0.211408 19.0177 0.0939842 18.6446 0.836321L13.2843 11.6472L1.29303 13.3809C0.962436 13.4279 0.660175 13.5829 0.428758 13.8178C0.148986 14.1039 -0.00518049 14.4888 0.000132928 14.8878C0.00544635 15.2869 0.169805 15.6676 0.457094 15.9462L9.1329 24.3609L7.0832 36.243C7.03514 36.5194 7.06588 36.8037 7.17195 37.0636C7.27802 37.3235 7.45518 37.5486 7.68332 37.7135C7.91147 37.8783 8.18148 37.9762 8.46273 37.9962C8.74399 38.0161 9.02524 37.9573 9.27459 37.8263L20.0001 32.2165L30.7256 37.8263C31.0184 37.9814 31.3585 38.0331 31.6843 37.9767C32.5061 37.8357 33.0587 37.0605 32.917 36.243L30.8673 24.3609L39.5431 15.9462C39.7792 15.716 39.9351 15.4153 39.9823 15.0864C40.1098 14.2642 39.5336 13.503 38.7072 13.3809Z" fill="#FEB579"/>
</svg>
